<?xml version="1.0" encoding="utf-8"?>
<!-- Generator: Adobe Illustrator 24.0.1, SVG Export Plug-In . SVG Version: 6.00 Build 0)  -->
<svg version="1.1" id="Calque_1" xmlns="http://www.w3.org/2000/svg" xmlns:xlink="http://www.w3.org/1999/xlink" x="0px" y="0px"
	 viewBox="0 0 1114.4 243.37" style="enable-background:new 0 0 1114.4 243.37;" xml:space="preserve">
<style type="text/css">
	.st0{fill:#F2F2F2;}
</style>
<g>
	<path class="st0" d="M100.82,0h64.68l0.2,114.79h-64.68l-0.2-13.38l-17.97,13.38l-18.37-13.38v13.38H0L0.2,0h64.68l17.97,11.78
		L100.82,0z"/>
	<path class="st0" d="M341.58,0v114.79H276.9V86.04l-21.96,28.75h-79.26V108L262.32,0H341.58z M175.68,42.72V0h36.53L175.68,42.72z"
		/>
	<path class="st0" d="M458.96,49.91V0h55.1l-0.2,114.99H351.56L351.76,0h54.3v49.91H458.96z"/>
	<path class="st0" d="M523.84,0h162.11v57.5l-47.31,57.5H523.84V0z"/>
	<path class="st0" d="M695.73,0h65.28v114.99h-65.28V0z"/>
	<path class="st0" d="M770.99,51.51V0h166.5v51.51l-48.91-0.2l0.2,63.48H823.7l-0.2-63.48L770.99,51.51z"/>
	<path class="st0" d="M1092.41,74.66l21.36,22.36v18.17h-166.5V0h166.5v42.72h-21.36l21.36,22.16v9.78H1092.41z"/>
</g>
<g>
	<path class="st0" d="M100.46,128.18h64.45l0.2,114.79h-64.45l-0.2-13.38l-17.9,13.38l-18.3-13.38v13.38H0l0.2-114.79h64.45
		l17.9,11.78L100.46,128.18z"/>
	<path class="st0" d="M340.37,128.18v114.79h-64.45v-28.75l-21.88,28.75h-78.98v-6.79l86.34-108H340.37z M175.06,170.9v-42.72h36.4
		L175.06,170.9z"/>
	<path class="st0" d="M350.51,198.45l111.4-70.27h53.91v55.1l-30.44,15.17h30.44v44.72H350.51V198.45z"/>
	<path class="st0" d="M632.59,231.99h-52.92l0.2,11.18h-54.11h0.2l0.2-114.99h54.11v11.18h52.92l-0.2-11.18h54.9l-0.2,114.99h-55.1
		V231.99z"/>
	<path class="st0" d="M697.84,128.18h65.05v114.99h-65.05V128.18z"/>
	<path class="st0" d="M851.81,128.18l86.33,108v6.79h-78.97l-21.88-28.75v28.75h-64.45V128.18H851.81z M901.74,128.18h36.4v42.72
		L901.74,128.18z"/>
	<path class="st0" d="M1093.11,202.85l21.29,22.36v18.17H948.49V128.18h165.91v42.72h-21.29l21.29,22.16v9.78H1093.11z"/>
</g>
</svg>
