<svg width="35" height="35" viewBox="0 0 35 35" fill="none" xmlns="http://www.w3.org/2000/svg">
<g clip-path="url(#clip0_324_172)">
<path d="M3.25391 4.7627C1.49414 4.7627 0.0664062 6.19043 0.0664062 7.9502C0.0664062 8.95293 0.537891 9.8959 1.34141 10.5002L15.7914 21.3377C16.5484 21.9021 17.5844 21.9021 18.3414 21.3377L32.7914 10.5002C33.5949 9.8959 34.0664 8.95293 34.0664 7.9502C34.0664 6.19043 32.6387 4.7627 30.8789 4.7627H3.25391ZM0.0664062 12.2002V26.0127C0.0664062 28.3568 1.97227 30.2627 4.31641 30.2627H29.8164C32.1605 30.2627 34.0664 28.3568 34.0664 26.0127V12.2002L19.6164 23.0377C18.1023 24.1732 16.0305 24.1732 14.5164 23.0377L0.0664062 12.2002Z" fill="white"/>
</g>
<defs>
<clipPath id="clip0_324_172">
<rect width="34" height="34" fill="white" transform="translate(0.0664062 0.512695)"/>
</clipPath>
</defs>
</svg>
