<svg width="35" height="35" viewBox="0 0 35 35" fill="none" xmlns="http://www.w3.org/2000/svg">
<path d="M13.3931 34.1326V22.8222H9.88825V17.6248H13.3931V15.3854C13.3931 9.59555 16.0111 6.91253 21.6919 6.91253C22.26 6.91253 23.0448 6.97206 23.7716 7.05851C24.3159 7.11455 24.8559 7.20689 25.388 7.3349V12.0476C25.0804 12.0188 24.7718 12.0018 24.4629 11.9965C24.1169 11.9875 23.7707 11.9833 23.4245 11.9838C22.4229 11.9838 21.6409 12.1198 21.0516 12.4217C20.6554 12.6206 20.3223 12.9259 20.0897 13.3033C19.7242 13.8986 19.5598 14.7136 19.5598 15.7865V17.6248H25.1117L24.5649 20.6055L24.1583 22.8222H19.5598V34.5082C27.9777 33.4905 34.5 26.3202 34.5 17.6248C34.5 8.23207 26.8882 0.616699 17.5 0.616699C8.11175 0.616699 0.5 8.23207 0.5 17.6248C0.5 25.6016 5.98817 32.2943 13.3931 34.1326Z" fill="white"/>
</svg>
