<svg width="37" height="35" viewBox="0 0 37 35" fill="none" xmlns="http://www.w3.org/2000/svg">
<g clip-path="url(#clip0_324_168)">
<path d="M10.8726 2.24963C8.66631 2.24963 6.87256 4.15549 6.87256 6.49963V21.3746C6.87256 23.7188 8.66631 25.6246 10.8726 25.6246H32.8726C35.0788 25.6246 36.8726 23.7188 36.8726 21.3746V6.49963C36.8726 4.15549 35.0788 2.24963 32.8726 2.24963H10.8726ZM25.6226 9.33518L31.6226 18.8977C31.9288 19.3891 31.9601 20.0133 31.6976 20.5313C31.4351 21.0492 30.9288 21.3746 30.3726 21.3746H21.3726H18.3726H13.3726C12.7976 21.3746 12.2726 21.0227 12.0226 20.4715C11.7726 19.9203 11.8413 19.2629 12.2038 18.7848L16.2038 13.4723C16.4913 13.0938 16.9163 12.8746 17.3726 12.8746C17.8288 12.8746 18.2601 13.0938 18.5413 13.4723L19.6226 14.9067L23.1226 9.32854C23.4038 8.89026 23.8726 8.62463 24.3726 8.62463C24.8726 8.62463 25.3413 8.89026 25.6226 9.33518ZM12.8726 8.62463C12.8726 8.06105 13.0833 7.52055 13.4583 7.12203C13.8334 6.72352 14.3421 6.49963 14.8726 6.49963C15.403 6.49963 15.9117 6.72352 16.2868 7.12203C16.6618 7.52055 16.8726 8.06105 16.8726 8.62463C16.8726 9.18822 16.6618 9.72872 16.2868 10.1272C15.9117 10.5258 15.403 10.7496 14.8726 10.7496C14.3421 10.7496 13.8334 10.5258 13.4583 10.1272C13.0833 9.72872 12.8726 9.18822 12.8726 8.62463ZM3.87256 8.09338C3.87256 7.21018 3.20381 6.49963 2.37256 6.49963C1.54131 6.49963 0.872559 7.21018 0.872559 8.09338V22.9684C0.872559 27.9555 4.67881 31.9996 9.37256 31.9996H29.3726C30.2038 31.9996 30.8726 31.2891 30.8726 30.4059C30.8726 29.5227 30.2038 28.8121 29.3726 28.8121H9.37256C6.33506 28.8121 3.87256 26.1957 3.87256 22.9684V8.09338Z" fill="white"/>
</g>
<defs>
<clipPath id="clip0_324_168">
<rect width="36" height="34" fill="white" transform="translate(0.872559 0.124634)"/>
</clipPath>
</defs>
</svg>
