<svg width="35" height="35" viewBox="0 0 35 35" fill="none" xmlns="http://www.w3.org/2000/svg">
<path d="M10.683 0.61078C8.87415 0.696104 7.63896 0.984958 6.55903 1.40931C5.44155 1.84514 4.49423 2.42979 3.55171 3.37615C2.60934 4.32251 2.02879 5.27085 1.59642 6.39084C1.17793 7.4734 0.894316 8.71032 0.814416 10.521C0.734515 12.3316 0.716807 12.9137 0.725732 17.5326C0.734515 22.1511 0.754915 22.7301 0.842607 24.5446C0.929024 26.3538 1.21661 27.5893 1.6409 28.67C2.07724 29.7882 2.66091 30.7355 3.60725 31.6788C4.55344 32.622 5.50063 33.2014 6.62264 33.6347C7.70384 34.0528 8.94045 34.3378 10.75 34.4171C12.5595 34.4964 13.1419 34.5149 17.7571 34.5059C22.3724 34.4971 22.9535 34.4766 24.7665 34.3906C26.5799 34.3045 27.8081 34.0147 28.8888 33.5922C30.0064 33.1548 30.954 32.5717 31.8961 31.6248C32.8382 30.6777 33.4183 29.7286 33.8504 28.6081C34.2693 27.5264 34.5539 26.2893 34.6324 24.4802C34.7117 22.6647 34.7304 22.0852 34.7216 17.4672C34.7127 12.8491 34.6919 12.2701 34.6059 10.4563C34.5199 8.64257 34.2319 7.4109 33.8079 6.32947C33.371 5.21133 32.7879 4.26468 31.8421 3.32074C30.8962 2.37679 29.9467 1.79681 28.8273 1.36551C27.7452 0.94669 26.5095 0.661379 24.7 0.583141C22.8904 0.504904 22.308 0.484636 17.6911 0.493707C13.0742 0.502495 12.4962 0.522338 10.683 0.61078ZM10.8816 31.3573C9.22407 31.2852 8.32406 31.0096 7.72424 30.779C6.93005 30.4729 6.36423 30.1028 5.76654 29.5105C5.1687 28.9183 4.80164 28.3503 4.49153 27.5574C4.25863 26.9573 3.97813 26.0579 3.90064 24.3996C3.81635 22.6073 3.79864 22.0692 3.78872 17.5283C3.7788 12.9876 3.79623 12.45 3.87471 10.657C3.94555 9.00016 4.22265 8.09873 4.45272 7.49892C4.75872 6.70336 5.12734 6.13827 5.72064 5.54072C6.31394 4.94302 6.88004 4.57494 7.67324 4.26468C8.27249 4.03068 9.17137 3.75246 10.8282 3.67351C12.621 3.58847 13.1582 3.57146 17.6962 3.56154C22.2342 3.55162 22.7729 3.56863 24.5664 3.64772C26.2225 3.71972 27.1239 3.99426 27.7227 4.22599C28.5172 4.53214 29.0827 4.8998 29.68 5.49451C30.2774 6.08894 30.6456 6.65333 30.9557 7.4486C31.1899 8.04629 31.4681 8.94531 31.5463 10.604C31.6316 12.3977 31.651 12.9356 31.6591 17.4753C31.6673 22.015 31.6513 22.5542 31.5727 24.3466C31.5004 26.0049 31.2256 26.9056 30.9947 27.5064C30.6887 28.3007 30.3199 28.867 29.7262 29.4643C29.1326 30.0617 28.5672 30.4296 27.7736 30.7399C27.1752 30.9736 26.2752 31.2526 24.6198 31.3315C22.8268 31.4158 22.2896 31.4336 17.7499 31.4435C13.2102 31.4534 12.6744 31.435 10.8816 31.3573ZM24.7405 8.40956C24.7411 8.81326 24.8615 9.20769 25.0862 9.54297C25.311 9.87825 25.6301 10.1393 26.0031 10.2931C26.3762 10.447 26.7865 10.4867 27.1821 10.4072C27.5777 10.3277 27.9409 10.1326 28.2257 9.84663C28.5105 9.56063 28.7041 9.19656 28.7821 8.80047C28.86 8.40437 28.8188 7.99404 28.6637 7.62138C28.5085 7.24871 28.2464 6.93045 27.9104 6.70685C27.5744 6.48324 27.1797 6.36434 26.7762 6.36518C26.2353 6.36631 25.717 6.58231 25.3353 6.96568C24.9535 7.34905 24.7396 7.8684 24.7405 8.40956ZM8.99485 17.5168C9.00435 22.3403 12.9199 26.2416 17.74 26.2325C22.5604 26.2233 26.4624 22.3063 26.4534 17.4828C26.4442 12.6593 22.5278 8.75695 17.7068 8.76644C12.8859 8.77594 8.98579 12.6939 8.99485 17.5168ZM12.057 17.5107C12.0548 16.3894 12.385 15.2927 13.0058 14.3591C13.6266 13.4256 14.5102 12.6972 15.5448 12.266C16.5794 11.8349 17.7185 11.7204 18.8182 11.9369C19.9178 12.1535 20.9286 12.6914 21.7227 13.4827C22.5167 14.274 23.0584 15.2831 23.2793 16.3824C23.5001 17.4817 23.3902 18.6219 22.9633 19.6587C22.5365 20.6955 21.812 21.5823 20.8813 22.2071C19.9507 22.832 18.8558 23.1667 17.735 23.1689C16.9908 23.1705 16.2536 23.0253 15.5655 22.7418C14.8774 22.4583 14.2518 22.0419 13.7245 21.5165C13.1973 20.9911 12.7786 20.3669 12.4925 19.6796C12.2064 18.9923 12.0584 18.2553 12.057 17.5107Z" fill="white"/>
</svg>
