<svg width="477" height="28" viewBox="0 0 477 28" fill="none" xmlns="http://www.w3.org/2000/svg">
<g clip-path="url(#clip0_390_91)">
<path d="M20.2085 0H33.1739L33.2146 27.903H20.2485L20.2077 24.6518L16.607 27.903L12.9254 24.6518V27.903H0L0.0407344 0H13.0055L16.607 2.86311L20.2085 0ZM35.6149 10.3849V0H42.9379L35.6149 10.3849ZM68.8689 0V27.903H55.9035V20.9143L51.5017 27.903H35.6153V26.253L52.9822 0H68.8689ZM92.7989 12.1319V0H103.844L103.803 27.9516H71.27L71.3099 0H82.1945V12.1319H92.7989ZM106.204 0H138.698V13.9758L129.214 27.9516H106.204V0ZM141.059 0H154.145V27.9516H141.059V0ZM156.545 12.52V0H189.92V12.52L180.115 12.4714L180.156 27.903H167.11L167.069 12.4714L156.545 12.52ZM221.373 18.149L225.654 23.5841V28H192.28V0H225.654V10.3849H221.373L225.654 15.7714V18.1492L221.373 18.149ZM270.633 0H283.599L283.64 27.903H270.674L270.633 24.6518L267.032 27.903L263.35 24.6518V27.903H250.425L250.465 0H263.429L267.031 2.86311L270.633 0ZM286.04 10.3849V0H293.363L286.04 10.3849ZM319.294 0V27.903H306.328V20.9143L301.927 27.903H286.04V26.253L303.407 0H319.294ZM321.735 17.0815L344.145 0H354.989V13.3936L348.867 17.0817H354.989V27.9516H321.735V17.0815ZM378.879 27.9514V25.2341H368.234L368.275 27.9516H357.43L357.47 0H368.354V2.71754H378.999L378.959 0H390.004L389.963 27.9516L378.879 27.9514ZM392.404 0H405.491V27.9516H392.405L392.404 0ZM433.822 0H441.145V10.3849L433.822 0ZM423.777 0L441.145 26.253V27.903H425.258L420.856 20.9143V27.903H407.891V0H423.777ZM472.718 18.1492L477 23.5841V28H443.626V0H477V10.3849H472.718L477 15.7714V18.1492H472.718Z" fill="url(#paint0_linear_390_91)"/>
</g>
<defs>
<linearGradient id="paint0_linear_390_91" x1="477" y1="14" x2="0" y2="14" gradientUnits="userSpaceOnUse">
<stop stop-color="white"/>
<stop offset="1" stop-color="white"/>
</linearGradient>
<clipPath id="clip0_390_91">
<rect width="477" height="28" fill="white"/>
</clipPath>
</defs>
</svg>
