<svg width="366" height="89" viewBox="0 0 366 89" fill="none" xmlns="http://www.w3.org/2000/svg">
<path d="M33.332 0.189941H54.3152L54.3799 41.3447H33.3974L33.3328 36.5493L27.5041 41.3447L21.5459 36.5493V41.3447H0.626709L0.691371 0.189941H21.6747L27.5034 4.41277L33.332 0.189941ZM58.2657 15.5067V0.189941H70.1173L58.2657 15.5067ZM112.084 0.189941V41.3447H91.1007V31.0382L83.9761 41.3447H58.2658V38.9112L86.373 0.189941H112.084ZM150.812 18.084V0.189941H168.687L168.622 41.4163H115.97L116.034 0.189941H133.649V18.084H150.812ZM172.508 0.189941H225.095V20.8031L209.746 41.4163H172.508V0.189941ZM228.916 0.189941H250.094V41.4163H228.916V0.189941ZM253.979 18.6557V0.189941H307.992V18.6557L292.125 18.5842L292.19 41.3446H271.077L271.012 18.5842L253.979 18.6557ZM358.896 26.9583L365.825 34.9742V41.4874H311.813V0.189941H365.825V15.5067H358.896L365.825 23.4514V26.9584L358.896 26.9583Z" fill="white"/>
<path d="M32.7422 48.1953H53.4282L53.4921 88.7673H32.8059L32.742 84.0398L26.9959 88.7673L21.1221 84.0398V88.7673H0.5L0.563886 48.1953H21.2499L26.996 52.3584L32.7422 48.1953ZM57.9612 63.2951V48.1953H69.6449L57.9612 63.2951ZM111.017 48.1953V88.7673H90.3311V78.6061L83.308 88.7667H57.9612V86.3681L85.6703 48.1953H111.017ZM115.55 73.0321L151.304 48.1953H168.606V67.6698L158.838 73.0321H168.606V88.8377H115.55V73.0321ZM207.36 88.8377V84.8865H190.377L190.441 88.8379H173.139L173.203 48.1955H190.569V52.1469H207.552L207.488 48.1955H225.11L225.046 88.8379L207.36 88.8377ZM229.578 48.1953H250.456V88.8377H229.579L229.578 48.1953ZM296.297 48.1953H307.981V63.2951L296.297 48.1953ZM280.271 48.1953L307.981 86.3681V88.7671H282.635L275.611 78.6061V88.7667H254.925V48.1953H280.271ZM358.994 74.5846L365.826 82.4873V88.9083H312.578V48.1953H365.826V63.2951H358.994L365.826 71.1273V74.5846H358.994Z" fill="white"/>
</svg>
