<svg width="56" height="56" viewBox="0 0 56 56" fill="none" xmlns="http://www.w3.org/2000/svg">
<g clip-path="url(#clip0_323_125)">
<path d="M0.936523 27.7137C0.936523 20.4203 3.83384 13.4256 8.99109 8.26831C14.1483 3.11106 21.1431 0.213745 28.4365 0.213745C35.73 0.213745 42.7247 3.11106 47.882 8.26831C53.0392 13.4256 55.9365 20.4203 55.9365 27.7137C55.9365 35.0072 53.0392 42.0019 47.882 47.1592C42.7247 52.3164 35.73 55.2137 28.4365 55.2137C21.1431 55.2137 14.1483 52.3164 8.99109 47.1592C3.83384 42.0019 0.936523 35.0072 0.936523 27.7137ZM28.4365 31.1512C27.5248 31.1512 26.6505 30.7891 26.0058 30.1444C25.3612 29.4998 24.999 28.6254 24.999 27.7137C24.999 26.8021 25.3612 25.9277 26.0058 25.2831C26.6505 24.6384 27.5248 24.2762 28.4365 24.2762C29.3482 24.2762 30.2225 24.6384 30.8672 25.2831C31.5119 25.9277 31.874 26.8021 31.874 27.7137C31.874 28.6254 31.5119 29.4998 30.8672 30.1444C30.2225 30.7891 29.3482 31.1512 28.4365 31.1512ZM18.124 27.7137C18.124 30.4488 19.2105 33.0718 21.1445 35.0058C23.0785 36.9398 25.7015 38.0262 28.4365 38.0262C31.1716 38.0262 33.7946 36.9398 35.7286 35.0058C37.6625 33.0718 38.749 30.4488 38.749 27.7137C38.749 24.9787 37.6625 22.3557 35.7286 20.4217C33.7946 18.4877 31.1716 17.4012 28.4365 17.4012C25.7015 17.4012 23.0785 18.4877 21.1445 20.4217C19.2105 22.3557 18.124 24.9787 18.124 27.7137ZM11.249 25.995C11.249 22.2352 13.1289 18.3573 16.1045 15.3817C19.0801 12.4061 22.958 10.5262 26.7178 10.5262C27.6631 10.5262 28.4365 9.75281 28.4365 8.8075C28.4365 7.86218 27.6631 7.08875 26.7178 7.08875C21.8408 7.08875 17.1357 9.48425 13.666 12.9432C10.1963 16.4022 7.81152 21.118 7.81152 25.995C7.81152 26.9403 8.58496 27.7137 9.53027 27.7137C10.4756 27.7137 11.249 26.9403 11.249 25.995Z" fill="white"/>
</g>
<defs>
<clipPath id="clip0_323_125">
<rect width="55" height="55" fill="white" transform="translate(0.936523 0.213745)"/>
</clipPath>
</defs>
</svg>
