<svg width="35" height="17" viewBox="0 0 35 17" fill="none" xmlns="http://www.w3.org/2000/svg">
<path d="M34.9448 11.5691C34.8711 14.1147 32.6611 16.0607 30.1282 16.0607H18.54C18.285 16.0588 18.0412 15.9558 17.8619 15.7744C17.6827 15.5929 17.5827 15.3478 17.5838 15.0926V2.63562C17.573 2.41962 17.6286 2.20549 17.743 2.02204C17.8575 1.83859 18.0254 1.69461 18.2241 1.60947C18.2241 1.60947 19.2866 0.882372 21.5291 0.882372C22.9067 0.877508 24.2597 1.24739 25.4433 1.95246C26.3646 2.49066 27.164 3.21461 27.7908 4.07835C28.4175 4.94209 28.8579 5.92675 29.0841 6.96985C29.4836 6.85646 29.8973 6.79835 30.3138 6.79977C31.5661 6.79977 32.7645 7.30718 33.6386 8.20577C34.5127 9.10437 34.9816 10.3176 34.9448 11.5691ZM16.1346 3.42792C16.4845 7.65159 16.7395 11.5025 16.1346 15.7191C16.1346 15.8187 16.095 15.9142 16.0246 15.9847C15.9542 16.0551 15.8587 16.0947 15.7592 16.0947C15.6596 16.0947 15.5641 16.0551 15.4937 15.9847C15.4233 15.9142 15.3837 15.8187 15.3837 15.7191C14.8242 11.5436 15.0721 7.61474 15.3837 3.42792C15.3837 3.3283 15.4233 3.23277 15.4937 3.16233C15.5641 3.09189 15.6596 3.05232 15.7592 3.05232C15.8587 3.05232 15.9542 3.09189 16.0246 3.16233C16.095 3.23277 16.1346 3.3283 16.1346 3.42792ZM13.7985 4.88353C14.2023 8.65223 14.3227 11.9504 13.79 15.7333C13.7785 15.8285 13.7325 15.9163 13.6607 15.98C13.589 16.0436 13.4964 16.0788 13.4004 16.0788C13.3045 16.0788 13.2119 16.0436 13.1401 15.98C13.0684 15.9163 13.0224 15.8285 13.0109 15.7333C12.542 12.0057 12.6482 8.61822 13.0109 4.88353C13.0109 4.77902 13.0524 4.6788 13.1262 4.60491C13.2001 4.53102 13.3002 4.4895 13.4047 4.4895C13.5091 4.4895 13.6093 4.53102 13.6832 4.60491C13.757 4.6788 13.7985 4.77902 13.7985 4.88353ZM11.4426 4.51927C11.8251 8.38294 11.9951 11.8483 11.4426 15.7219C11.4426 15.8219 11.4029 15.9178 11.3323 15.9885C11.2616 16.0592 11.1658 16.0989 11.0658 16.0989C10.9659 16.0989 10.87 16.0592 10.7994 15.9885C10.7287 15.9178 10.689 15.8219 10.689 15.7219C10.1507 11.9093 10.3249 8.33759 10.689 4.51927C10.689 4.41928 10.7287 4.32338 10.7994 4.25268C10.87 4.18198 10.9659 4.14226 11.0658 4.14226C11.1658 4.14226 11.2616 4.18198 11.3323 4.25268C11.4029 4.32338 11.4426 4.41928 11.4426 4.51927ZM9.10943 5.61062C9.56979 8.97176 9.56598 12.3803 9.0981 15.7404C9.08983 15.8365 9.04581 15.9261 8.97472 15.9914C8.90364 16.0566 8.81067 16.0928 8.71419 16.0928C8.61771 16.0928 8.52474 16.0566 8.45365 15.9914C8.38257 15.9261 8.33854 15.8365 8.33028 15.7404C7.89708 12.3777 7.89708 8.97329 8.33028 5.61062C8.33028 5.50725 8.37132 5.40811 8.44438 5.33501C8.51744 5.26192 8.61653 5.22085 8.71985 5.22085C8.82318 5.22085 8.92227 5.26192 8.99533 5.33501C9.06839 5.40811 9.10943 5.50725 9.10943 5.61062ZM6.74364 8.1179C7.34004 10.7612 7.06663 13.0786 6.70255 15.7545C6.70255 15.8511 6.6642 15.9438 6.59592 16.0121C6.52764 16.0804 6.43504 16.1188 6.33848 16.1188C6.24192 16.1188 6.14931 16.0804 6.08104 16.0121C6.01276 15.9438 5.9744 15.8511 5.9744 15.7545C5.67691 13.1211 5.41058 10.7244 5.9744 8.11648C5.98035 8.01846 6.02346 7.92641 6.09494 7.8591C6.16641 7.7918 6.26087 7.75433 6.35902 7.75433C6.45717 7.75433 6.55162 7.7918 6.6231 7.8591C6.69458 7.92641 6.73769 8.01988 6.74364 8.1179ZM4.39909 7.73096C4.94875 10.4197 4.76742 12.703 4.38493 15.4016C4.34809 15.7985 3.65677 15.8027 3.61994 15.4016C3.27428 12.7398 3.12836 10.3842 3.60577 7.73096C3.61975 7.6357 3.66751 7.54864 3.74034 7.48569C3.81316 7.42274 3.90619 7.3881 4.00243 7.3881C4.09867 7.3881 4.1917 7.42274 4.26453 7.48569C4.33735 7.54864 4.38512 7.6357 4.39909 7.73096ZM2.03613 9.02216C2.60279 10.8193 2.40021 12.2707 1.9993 14.0849C1.9993 14.1815 1.96094 14.2742 1.89266 14.3425C1.82438 14.4108 1.73178 14.4492 1.63522 14.4492C1.53866 14.4492 1.44606 14.4108 1.37778 14.3425C1.3095 14.2742 1.27114 14.1815 1.27114 14.0849C0.929733 12.2962 0.769652 10.808 1.23856 9.02216C1.24876 8.92345 1.29517 8.83202 1.36883 8.76555C1.44249 8.69909 1.53816 8.6623 1.63735 8.6623C1.73654 8.6623 1.83221 8.69909 1.90586 8.76555C1.97952 8.83202 2.02593 8.92345 2.03613 9.02216Z" fill="white"/>
</svg>
