<svg width="137" height="86" viewBox="0 0 137 86" fill="none" xmlns="http://www.w3.org/2000/svg">
<g clip-path="url(#clip0_323_3)">
<path opacity="0.04" d="M18.3859 21.0882L14.9764 27.3123L0.354492 0.139428H6.52338C7.41173 0.135967 8.28468 0.369446 9.05078 0.815407C9.819 1.25494 10.4516 1.89414 10.8803 2.66404L10.8953 2.69156C14.4593 9.33545 16.7992 13.6891 18.0478 15.9995C18.1472 16.1713 18.2359 16.3489 18.3135 16.5314C18.3257 16.553 18.3377 16.5753 18.3497 16.5975C19.1623 18.0593 19.1781 19.6063 18.3946 21.0723L18.3862 21.088L18.3859 21.0882ZM135.104 26.0627C134.331 25.3353 133.304 24.9339 132.238 24.943H126.299C123.746 24.943 121.666 24.1341 119.94 22.47C118.229 20.8198 117.397 18.8509 117.397 16.4502V4.12866C117.401 3.59585 117.291 3.06826 117.076 2.57999C116.861 2.09171 116.545 1.65362 116.149 1.29403C115.59 0.767587 114.893 0.40834 114.137 0.257663C113.794 0.178783 113.444 0.139186 113.092 0.139651H92.7568V0.132853H68.2324C65.3414 0.0723429 62.7965 1.01934 60.6682 2.94865C60.0507 3.504 59.5016 4.12987 59.0324 4.81322C58.6035 4.18351 58.1099 3.59958 57.5595 3.07079C55.5117 1.09077 52.9292 0.102208 49.8799 0.132853H42.0678L42.0688 0.13107L36.2969 0.132853V0.139428H36.1365C35.2343 0.132212 34.3466 0.365689 33.5666 0.815407C32.7985 1.25496 32.166 1.89416 31.7375 2.66404L31.7221 2.69223C26.8983 11.6915 21.9383 20.9379 16.9797 30.1741L15.6065 32.7324H22.4887C23.9125 32.7324 25.0848 32.0456 25.7894 30.7985L25.8109 30.7592C26.9022 28.7056 27.9005 26.8309 28.7788 25.1866C29.6634 23.5302 30.6536 21.6927 31.7218 19.7254C32.7851 17.7676 33.8705 15.755 34.9485 13.7442C36.0265 11.7335 37.0174 9.89498 37.893 8.28037C37.9498 8.17528 38.007 8.06975 38.065 7.96288C40.3513 7.96288 41.9519 7.9611 43.5062 7.95976C45.3073 7.95842 47.1699 7.95664 50.1006 7.95664C50.8648 7.95664 51.4548 8.17316 51.9575 8.63786C52.1812 8.83068 52.3614 9.06803 52.4865 9.33446C52.6115 9.60089 52.6786 9.89044 52.6834 10.1843C52.6798 10.4726 52.6143 10.7568 52.4912 11.018C52.3681 11.2792 52.1902 11.5114 51.9694 11.699C51.4573 12.1641 50.856 12.3906 50.0785 12.4122H37.4223L53.5224 31.2329L53.5814 31.3017L53.647 31.364C54.6135 32.2815 55.7904 32.7664 57.0509 32.7664H60.7385L60.7592 32.7869L62.7864 32.7664H80.1237L80.1971 32.7601C82.9498 32.5305 85.2859 31.4563 87.1411 29.5673C89.023 27.6516 89.977 25.3317 89.977 22.6725C89.977 19.8803 88.9306 17.4693 86.8669 15.5062C84.8271 13.5672 82.3404 12.5821 79.4757 12.5786L75.2621 12.5062V16.4073C75.2594 16.932 75.3631 17.4518 75.5672 17.936C75.7713 18.4201 76.0714 18.8585 76.4499 19.2253C76.8238 19.6007 77.2695 19.8982 77.761 20.1004C78.2524 20.3026 78.7797 20.4054 79.3117 20.4027C79.8505 20.4157 80.6291 20.5075 81.2305 21.1243C81.6994 21.6057 81.9178 22.0975 81.9178 22.6722C81.9178 23.2468 81.7029 23.723 81.2414 24.1884C80.8204 24.6393 80.2385 24.9095 79.6197 24.9416L58.6506 24.9805C58.4835 24.781 58.3167 24.5813 58.1503 24.3815C57.0214 23.0285 55.6426 21.3993 54.0353 19.5194C56.0382 18.7408 57.7628 17.39 58.9903 15.6381C59.4288 16.2902 59.939 16.892 60.5116 17.4323C62.5542 19.3748 65.0606 20.3595 67.961 20.3595H72.0751V16.5316C72.0815 15.9923 71.9736 15.4576 71.7586 14.9622C71.5435 14.4668 71.226 14.0216 70.8265 13.6555C70.0537 12.9281 69.0262 12.5267 67.9607 12.5358C67.624 12.5453 67.2888 12.4872 66.9753 12.3649C66.6618 12.2427 66.3765 12.0588 66.1365 11.8244C65.6405 11.3573 65.4194 10.8704 65.4194 10.2456C65.4194 9.62073 65.6374 9.15058 66.1252 8.69881C66.3689 8.46667 66.6568 8.28506 66.9721 8.16463C67.2874 8.04419 67.6237 7.98735 67.9615 7.99743H68.0098L68.0611 7.99464C68.357 7.98004 70.91 7.95564 84.6841 7.95564C84.7589 7.95564 84.9382 7.95876 85.1462 7.96255C85.8362 7.97547 87.121 7.9991 88.2679 7.97124C88.3732 7.96879 88.4746 7.96567 88.5737 7.96255H94.9346V28.7351C94.9319 29.2596 95.0355 29.7792 95.2394 30.2631C95.4433 30.7471 95.7432 31.1854 96.1214 31.552C96.4977 31.9304 96.947 32.2297 97.4425 32.4323C97.938 32.6348 98.4695 32.7364 99.0054 32.7309H103.077V10.6375C103.077 10.3437 103.077 10.1084 103.076 9.863C103.076 9.59678 103.075 9.31829 103.075 8.93807C103.076 8.59737 102.989 8.26211 102.822 7.96455H109.213V16.4504C109.213 20.7762 110.786 24.5527 113.887 27.6751C116.964 30.7731 120.788 32.4707 125.252 32.7217C125.472 32.7387 126.167 32.7676 134.599 32.7676H136.354V28.9391C136.36 28.3997 136.252 27.8651 136.037 27.3696C135.822 26.8742 135.505 26.4291 135.105 26.063L135.104 26.0627Z" fill="white"/>
<path opacity="0.04" d="M18.3864 73.4317L14.9768 79.6558L0.35498 52.4829H6.52386C7.41222 52.4795 8.28517 52.713 9.05127 53.1589C9.81949 53.5984 10.4521 54.2376 10.8808 55.0075L10.8958 55.0351C14.4598 61.679 16.7997 66.0326 18.0483 68.343C18.1477 68.5148 18.2364 68.6924 18.314 68.8749C18.3262 68.8965 18.3381 68.9188 18.3502 68.941C19.1628 70.4028 19.1786 71.9498 18.3951 73.4158L18.3867 73.4315L18.3864 73.4317ZM135.104 78.4063C134.332 77.6788 133.304 77.2774 132.239 77.2865H126.299C123.746 77.2865 121.666 76.4776 119.941 74.8135C118.23 73.1634 117.398 71.1944 117.398 68.7937V56.4722C117.401 55.9394 117.292 55.4118 117.077 54.9235C116.862 54.4352 116.546 53.9971 116.149 53.6375C115.59 53.1111 114.893 52.7518 114.138 52.6012C113.795 52.5223 113.444 52.4827 113.092 52.4832H92.7573V52.4764H68.2329C65.3418 52.4158 62.797 53.3628 60.6687 55.2922C60.0511 55.8475 59.5021 56.4734 59.0329 57.1567C58.604 56.527 58.1104 55.9431 57.56 55.4143C55.5122 53.4343 52.9297 52.4457 49.8804 52.4764H42.0683L42.0693 52.4746L36.2974 52.4764V52.4829H36.137C35.2347 52.4757 34.3471 52.7092 33.5671 53.1589C32.799 53.5985 32.1665 54.2377 31.7379 55.0075L31.7225 55.0357C26.8988 64.035 21.9388 73.2814 16.9802 82.5176L15.607 85.0759H22.4892C23.913 85.0759 25.0852 84.3891 25.7899 83.142L25.8114 83.1027C26.9027 81.0491 27.901 79.1744 28.7793 77.5301C29.6639 75.8737 30.6541 74.0362 31.7223 72.0689C32.7856 70.1111 33.871 68.0985 34.949 66.0878C36.027 64.077 37.0179 62.2385 37.8935 60.6239C37.9503 60.5188 38.0075 60.4133 38.0655 60.3064C40.3517 60.3064 41.9524 60.3046 43.5067 60.3033C45.3078 60.3019 47.1704 60.3001 50.1011 60.3001C50.8653 60.3001 51.4553 60.5167 51.958 60.9814C52.1817 61.1742 52.3619 61.4115 52.4869 61.678C52.612 61.9444 52.6791 62.2339 52.6839 62.5278C52.6803 62.8161 52.6148 63.1003 52.4917 63.3615C52.3685 63.6227 52.1907 63.8549 51.9699 64.0425C51.4578 64.5076 50.8565 64.7341 50.0789 64.7557H37.4228L53.5228 83.5764L53.5818 83.6453L53.6475 83.7075C54.614 84.625 55.7909 85.1099 57.0514 85.1099H60.739L60.7597 85.1304L62.7869 85.1099H80.1242L80.1976 85.1036C82.9503 84.874 85.2863 83.7998 87.1416 81.9108C89.0235 79.9951 89.9775 77.6752 89.9775 75.016C89.9775 72.2238 88.9311 69.8128 86.8674 67.8497C84.8276 65.9107 82.3409 64.9256 79.4762 64.9221L75.2626 64.8497V68.7508C75.2599 69.2755 75.3636 69.7953 75.5677 70.2795C75.7717 70.7636 76.0719 71.2021 76.4503 71.5688C76.8242 71.9442 77.27 72.2417 77.7615 72.4439C78.2529 72.6461 78.7801 72.7489 79.3122 72.7462C79.851 72.7592 80.6296 72.851 81.231 73.4678C81.6999 73.9492 81.9183 74.441 81.9183 75.0157C81.9183 75.5903 81.7034 76.0665 81.2419 76.5319C80.8209 76.9828 80.239 77.253 79.6201 77.2851L58.651 77.324C58.484 77.1245 58.3172 76.9248 58.1508 76.725C57.0219 75.372 55.6431 73.7428 54.0358 71.8629C56.0387 71.0843 57.7633 69.7335 58.9908 67.9816C59.4293 68.6337 59.9395 69.2355 60.5121 69.7758C62.5547 71.7183 65.0611 72.703 67.9615 72.703H72.0756V68.8751C72.082 68.3358 71.9741 67.8011 71.759 67.3057C71.544 66.8103 71.2264 66.3652 70.827 65.999C70.0542 65.2716 69.0267 64.8702 67.9612 64.8793C67.6245 64.8888 67.2893 64.8307 66.9758 64.7084C66.6623 64.5862 66.377 64.4023 66.137 64.1679C65.641 63.7008 65.4198 63.2139 65.4198 62.5891C65.4198 61.9642 65.6379 61.4941 66.1257 61.0423C66.3694 60.8102 66.6573 60.6286 66.9726 60.5081C67.2879 60.3877 67.6242 60.3309 67.962 60.3409H68.0103L68.0615 60.3381C68.3575 60.3235 70.9105 60.2991 84.6846 60.2991C84.7594 60.2991 84.9387 60.3023 85.1466 60.3061C85.8367 60.319 87.1215 60.3426 88.2683 60.3147C88.3736 60.3123 88.4751 60.3092 88.5741 60.3061H94.9351V81.0786C94.9323 81.6031 95.036 82.1227 95.2399 82.6066C95.4438 83.0906 95.7437 83.5289 96.1219 83.8955C96.4982 84.2739 96.9475 84.5732 97.443 84.7758C97.9385 84.9783 98.47 85.0799 99.0059 85.0744H103.078V62.981C103.078 62.6872 103.078 62.4519 103.077 62.2065C103.077 61.9403 103.076 61.6618 103.076 61.2816C103.077 60.9409 102.99 60.6056 102.822 60.3081H109.213V68.7939C109.213 73.1197 110.786 76.8962 113.888 80.0186C116.964 83.1166 120.788 84.8142 125.253 85.0652C125.472 85.0822 126.168 85.1111 134.599 85.1111H136.354V81.2826C136.361 80.7432 136.253 80.2086 136.038 79.7131C135.823 79.2177 135.505 78.7726 135.106 78.4065L135.104 78.4063Z" fill="white"/>
<path opacity="0.15" d="M18.3864 34.1961L14.9768 40.4202L0.35498 13.2473H6.52386C7.41222 13.2439 8.28517 13.4774 9.05127 13.9233C9.81949 14.3629 10.4521 15.0021 10.8808 15.7719L10.8958 15.7995C14.4598 22.4434 16.7997 26.797 18.0483 29.1074C18.1477 29.2792 18.2364 29.4568 18.314 29.6393C18.3262 29.6609 18.3381 29.6832 18.3502 29.7054C19.1628 31.1672 19.1786 32.7142 18.3951 34.1802L18.3867 34.1959L18.3864 34.1961ZM135.104 39.1707C134.332 38.4432 133.304 38.0418 132.239 38.0509H126.299C123.746 38.0509 121.666 37.242 119.941 35.5779C118.23 33.9278 117.398 31.9588 117.398 29.5581V17.2366C117.401 16.7038 117.292 16.1762 117.077 15.6879C116.862 15.1996 116.546 14.7615 116.149 14.4019C115.59 13.8755 114.893 13.5163 114.138 13.3656C113.795 13.2867 113.444 13.2471 113.092 13.2476H92.7573V13.2408H68.2329C65.3418 13.1803 62.797 14.1272 60.6687 16.0566C60.0511 16.6119 59.5021 17.2378 59.0329 17.9211C58.604 17.2914 58.1104 16.7075 57.56 16.1787C55.5122 14.1987 52.9297 13.2101 49.8804 13.2408H42.0683L42.0693 13.239L36.2974 13.2408V13.2473H36.137C35.2347 13.2401 34.3471 13.4736 33.5671 13.9233C32.799 14.3629 32.1665 15.0021 31.7379 15.7719L31.7225 15.8001C26.8988 24.7994 21.9388 34.0458 16.9802 43.282L15.607 45.8403H22.4892C23.913 45.8403 25.0852 45.1535 25.7899 43.9064L25.8114 43.8671C26.9027 41.8135 27.901 39.9388 28.7793 38.2945C29.6639 36.6381 30.6541 34.8006 31.7223 32.8333C32.7856 30.8755 33.871 28.8629 34.949 26.8522C36.027 24.8414 37.0179 23.0029 37.8935 21.3883C37.9503 21.2832 38.0075 21.1777 38.0655 21.0708C40.3517 21.0708 41.9524 21.069 43.5067 21.0677C45.3078 21.0663 47.1704 21.0646 50.1011 21.0646C50.8653 21.0646 51.4553 21.2811 51.958 21.7458C52.1817 21.9386 52.3619 22.1759 52.4869 22.4424C52.612 22.7088 52.6791 22.9983 52.6839 23.2922C52.6803 23.5805 52.6148 23.8647 52.4917 24.1259C52.3685 24.3871 52.1907 24.6193 51.9699 24.807C51.4578 25.272 50.8565 25.4985 50.0789 25.5201H37.4228L53.5228 44.3408L53.5818 44.4097L53.6475 44.472C54.614 45.3894 55.7909 45.8743 57.0514 45.8743H60.739L60.7597 45.8948L62.7869 45.8743H80.1242L80.1976 45.868C82.9503 45.6384 85.2863 44.5642 87.1416 42.6753C89.0235 40.7595 89.9775 38.4396 89.9775 35.7804C89.9775 32.9882 88.9311 30.5772 86.8674 28.6141C84.8276 26.6751 82.3409 25.69 79.4762 25.6865L75.2626 25.6141V29.5152C75.2599 30.0399 75.3636 30.5597 75.5677 31.0439C75.7717 31.528 76.0719 31.9665 76.4503 32.3332C76.8242 32.7086 77.27 33.0061 77.7615 33.2083C78.2529 33.4105 78.7801 33.5133 79.3122 33.5106C79.851 33.5236 80.6296 33.6154 81.231 34.2322C81.6999 34.7136 81.9183 35.2054 81.9183 35.7801C81.9183 36.3547 81.7034 36.8309 81.2419 37.2963C80.8209 37.7472 80.239 38.0174 79.6201 38.0495L58.651 38.0884C58.484 37.8889 58.3172 37.6892 58.1508 37.4894C57.0219 36.1364 55.6431 34.5072 54.0358 32.6273C56.0387 31.8487 57.7633 30.4979 58.9908 28.746C59.4293 29.3981 59.9395 29.9999 60.5121 30.5402C62.5547 32.4827 65.0611 33.4674 67.9615 33.4674H72.0756V29.6395C72.082 29.1002 71.9741 28.5655 71.759 28.0701C71.544 27.5747 71.2264 27.1296 70.827 26.7635C70.0542 26.036 69.0267 25.6346 67.9612 25.6437C67.6245 25.6532 67.2893 25.5951 66.9758 25.4728C66.6623 25.3506 66.377 25.1667 66.137 24.9323C65.641 24.4652 65.4198 23.9783 65.4198 23.3535C65.4198 22.7286 65.6379 22.2585 66.1257 21.8067C66.3694 21.5746 66.6573 21.393 66.9726 21.2725C67.2879 21.1521 67.6242 21.0953 67.962 21.1053H68.0103L68.0615 21.1026C68.3575 21.088 70.9105 21.0635 84.6846 21.0635C84.7594 21.0635 84.9387 21.0667 85.1466 21.0705C85.8367 21.0834 87.1215 21.107 88.2683 21.0791C88.3736 21.0767 88.4751 21.0736 88.5741 21.0705H94.9351V41.843C94.9323 42.3675 95.036 42.8871 95.2399 43.371C95.4438 43.855 95.7437 44.2933 96.1219 44.6599C96.4982 45.0383 96.9475 45.3376 97.443 45.5402C97.9385 45.7427 98.47 45.8443 99.0059 45.8388H103.078V23.7454C103.078 23.4516 103.078 23.2163 103.077 22.9709C103.077 22.7047 103.076 22.4262 103.076 22.046C103.077 21.7053 102.99 21.37 102.822 21.0725H109.213V29.5583C109.213 33.8841 110.786 37.6606 113.888 40.783C116.964 43.881 120.788 45.5786 125.253 45.8296C125.472 45.8466 126.168 45.8755 134.599 45.8755H136.354V42.047C136.361 41.5076 136.253 40.973 136.038 40.4776C135.823 39.9821 135.505 39.537 135.106 39.1709L135.104 39.1707Z" fill="white"/>
<path opacity="0.15" d="M18.3859 59.5918L14.9764 65.816L0.354492 38.6431H6.52338C7.41173 38.6396 8.28468 38.8731 9.05078 39.3191C9.819 39.7586 10.4516 40.3978 10.8803 41.1677L10.8953 41.1952C14.4593 47.8391 16.7992 52.1927 18.0478 54.5032C18.1472 54.6749 18.2359 54.8526 18.3135 55.0351C18.3257 55.0567 18.3377 55.079 18.3497 55.1011C19.1623 56.563 19.1781 58.11 18.3946 59.5759L18.3862 59.5916L18.3859 59.5918ZM135.104 64.5664C134.331 63.839 133.304 63.4375 132.238 63.4467H126.299C123.746 63.4467 121.666 62.6378 119.94 60.9737C118.229 59.3235 117.397 57.3545 117.397 54.9538V42.6323C117.401 42.0995 117.291 41.5719 117.076 41.0837C116.861 40.5954 116.545 40.1573 116.149 39.7977C115.59 39.2712 114.893 38.912 114.137 38.7613C113.794 38.6824 113.444 38.6428 113.092 38.6433H92.7568V38.6365H68.2324C65.3414 38.576 62.7965 39.523 60.6682 41.4523C60.0507 42.0077 59.5016 42.6335 59.0324 43.3169C58.6035 42.6872 58.1099 42.1032 57.5595 41.5744C55.5117 39.5944 52.9292 38.6059 49.8799 38.6365H42.0678L42.0688 38.6347L36.2969 38.6365V38.6431H36.1365C35.2343 38.6359 34.3466 38.8694 33.5666 39.3191C32.7985 39.7586 32.166 40.3978 31.7375 41.1677L31.7221 41.1959C26.8983 50.1951 21.9383 59.4415 16.9797 68.6778L15.6065 71.236H22.4887C23.9125 71.236 25.0848 70.5493 25.7894 69.3022L25.8109 69.2628C26.9022 67.2093 27.9005 65.3345 28.7788 63.6903C29.6634 62.0339 30.6536 60.1964 31.7218 58.2291C32.7851 56.2712 33.8705 54.2587 34.9485 52.2479C36.0265 50.2371 37.0174 48.3986 37.893 46.784C37.9498 46.6789 38.007 46.5734 38.065 46.4665C40.3513 46.4665 41.9519 46.4648 43.5062 46.4634C45.3073 46.4621 47.1699 46.4603 50.1006 46.4603C50.8648 46.4603 51.4548 46.6768 51.9575 47.1415C52.1812 47.3343 52.3614 47.5717 52.4865 47.8381C52.6115 48.1045 52.6786 48.3941 52.6834 48.6879C52.6798 48.9762 52.6143 49.2605 52.4912 49.5217C52.3681 49.7829 52.1902 50.015 51.9694 50.2027C51.4573 50.6677 50.856 50.8943 50.0785 50.9159H37.4223L53.5224 69.7365L53.5814 69.8054L53.647 69.8677C54.6135 70.7852 55.7904 71.27 57.0509 71.27H60.7385L60.7592 71.2905L62.7864 71.27H80.1237L80.1971 71.2638C82.9498 71.0341 85.2859 69.96 87.1411 68.071C89.023 66.1553 89.977 63.8354 89.977 61.1762C89.977 58.384 88.9306 55.9729 86.8669 54.0098C84.8271 52.0708 82.3404 51.0857 79.4757 51.0823L75.2621 51.0098V54.9109C75.2594 55.4356 75.3631 55.9555 75.5672 56.4396C75.7713 56.9237 76.0714 57.3622 76.4499 57.729C76.8238 58.1043 77.2695 58.4018 77.761 58.604C78.2524 58.8062 78.7797 58.909 79.3117 58.9064C79.8505 58.9193 80.6291 59.0111 81.2305 59.628C81.6994 60.1094 81.9178 60.6011 81.9178 61.1758C81.9178 61.7505 81.7029 62.2267 81.2414 62.692C80.8204 63.143 80.2385 63.4132 79.6197 63.4452L58.6506 63.4841C58.4835 63.2847 58.3167 63.085 58.1503 62.8852C57.0214 61.5322 55.6426 59.903 54.0353 58.023C56.0382 57.2445 57.7628 55.8936 58.9903 54.1418C59.4288 54.7939 59.939 55.3956 60.5116 55.9359C62.5542 57.8785 65.0606 58.8632 67.961 58.8632H72.0751V55.0353C72.0815 54.496 71.9736 53.9613 71.7586 53.4659C71.5435 52.9705 71.226 52.5253 70.8265 52.1592C70.0537 51.4318 69.0262 51.0303 67.9607 51.0395C67.624 51.049 67.2888 50.9908 66.9753 50.8686C66.6618 50.7463 66.3765 50.5625 66.1365 50.3281C65.6405 49.8609 65.4194 49.3741 65.4194 48.7492C65.4194 48.1244 65.6374 47.6542 66.1252 47.2025C66.3689 46.9703 66.6568 46.7887 66.9721 46.6683C67.2874 46.5479 67.6237 46.491 67.9615 46.5011H68.0098L68.0611 46.4983C68.357 46.4837 70.91 46.4593 84.6841 46.4593C84.7589 46.4593 84.9382 46.4624 85.1462 46.4662C85.8362 46.4791 87.121 46.5028 88.2679 46.4749C88.3732 46.4725 88.4746 46.4693 88.5737 46.4662H94.9346V67.2388C94.9319 67.7632 95.0355 68.2829 95.2394 68.7668C95.4433 69.2507 95.7432 69.689 96.1214 70.0557C96.4977 70.434 96.947 70.7334 97.4425 70.9359C97.938 71.1385 98.4695 71.24 99.0054 71.2346H103.077V49.1412C103.077 48.8474 103.077 48.612 103.076 48.3667C103.076 48.1004 103.075 47.822 103.075 47.4417C103.076 47.101 102.989 46.7658 102.822 46.4682H109.213V54.9541C109.213 59.2798 110.786 63.0563 113.887 66.1788C116.964 69.2768 120.788 70.9744 125.252 71.2253C125.472 71.2424 126.167 71.2713 134.599 71.2713H136.354V67.4427C136.36 66.9034 136.252 66.3687 136.037 65.8733C135.822 65.3779 135.505 64.9327 135.105 64.5666L135.104 64.5664Z" fill="white"/>
<path d="M18.3859 46.5872L14.9764 52.8113L0.354492 25.6385H6.52338C7.41173 25.635 8.28468 25.8685 9.05078 26.3144C9.819 26.754 10.4516 27.3932 10.8803 28.1631L10.8953 28.1906C14.4593 34.8345 16.7992 39.1881 18.0478 41.4985C18.1472 41.6703 18.2359 41.8479 18.3135 42.0304C18.3257 42.052 18.3377 42.0743 18.3497 42.0965C19.1623 43.5583 19.1781 45.1053 18.3946 46.5713L18.3862 46.587L18.3859 46.5872ZM135.104 51.5618C134.331 50.8343 133.304 50.4329 132.238 50.442H126.299C123.746 50.442 121.666 49.6331 119.94 47.969C118.229 46.3189 117.397 44.3499 117.397 41.9492V29.6277C117.401 29.0949 117.291 28.5673 117.076 28.079C116.861 27.5907 116.545 27.1526 116.149 26.7931C115.59 26.2666 114.893 25.9074 114.137 25.7567C113.794 25.6778 113.444 25.6382 113.092 25.6387H92.7568V25.6319H68.2324C65.3414 25.5714 62.7965 26.5184 60.6682 28.4477C60.0507 29.003 59.5016 29.6289 59.0324 30.3122C58.6035 29.6825 58.1099 29.0986 57.5595 28.5698C55.5117 26.5898 52.9292 25.6012 49.8799 25.6319H42.0678L42.0688 25.6301L36.2969 25.6319V25.6385H36.1365C35.2343 25.6312 34.3466 25.8647 33.5666 26.3144C32.7985 26.754 32.166 27.3932 31.7375 28.1631L31.7221 28.1913C26.8983 37.1905 21.9383 46.4369 16.9797 55.6731L15.6065 58.2314H22.4887C23.9125 58.2314 25.0848 57.5446 25.7894 56.2975L25.8109 56.2582C26.9022 54.2046 27.9005 52.3299 28.7788 50.6857C29.6634 49.0292 30.6536 47.1918 31.7218 45.2244C32.7851 43.2666 33.8705 41.254 34.9485 39.2433C36.0265 37.2325 37.0174 35.394 37.893 33.7794C37.9498 33.6743 38.007 33.5688 38.065 33.4619C40.3513 33.4619 41.9519 33.4601 43.5062 33.4588C45.3073 33.4574 47.1699 33.4557 50.1006 33.4557C50.8648 33.4557 51.4548 33.6722 51.9575 34.1369C52.1812 34.3297 52.3614 34.567 52.4865 34.8335C52.6115 35.0999 52.6786 35.3895 52.6834 35.6833C52.6798 35.9716 52.6143 36.2558 52.4912 36.517C52.3681 36.7782 52.1902 37.0104 51.9694 37.1981C51.4573 37.6631 50.856 37.8896 50.0785 37.9113H37.4223L53.5224 56.7319L53.5814 56.8008L53.647 56.8631C54.6135 57.7805 55.7904 58.2654 57.0509 58.2654H60.7385L60.7592 58.2859L62.7864 58.2654H80.1237L80.1971 58.2592C82.9498 58.0295 85.2859 56.9553 87.1411 55.0664C89.023 53.1506 89.977 50.8307 89.977 48.1715C89.977 45.3793 88.9306 42.9683 86.8669 41.0052C84.8271 39.0662 82.3404 38.0811 79.4757 38.0776L75.2621 38.0052V41.9063C75.2594 42.431 75.3631 42.9509 75.5672 43.435C75.7713 43.9191 76.0714 44.3576 76.4499 44.7243C76.8238 45.0997 77.2695 45.3972 77.761 45.5994C78.2524 45.8016 78.7797 45.9044 79.3117 45.9018C79.8505 45.9147 80.6291 46.0065 81.2305 46.6233C81.6994 47.1047 81.9178 47.5965 81.9178 48.1712C81.9178 48.7459 81.7029 49.222 81.2414 49.6874C80.8204 50.1383 80.2385 50.4086 79.6197 50.4406L58.6506 50.4795C58.4835 50.28 58.3167 50.0804 58.1503 49.8805C57.0214 48.5276 55.6426 46.8983 54.0353 45.0184C56.0382 44.2398 57.7628 42.889 58.9903 41.1371C59.4288 41.7892 59.939 42.391 60.5116 42.9313C62.5542 44.8739 65.0606 45.8585 67.961 45.8585H72.0751V42.0307C72.0815 41.4913 71.9736 40.9567 71.7586 40.4612C71.5435 39.9658 71.226 39.5207 70.8265 39.1546C70.0537 38.4271 69.0262 38.0257 67.9607 38.0348C67.624 38.0443 67.2888 37.9862 66.9753 37.8639C66.6618 37.7417 66.3765 37.5578 66.1365 37.3234C65.6405 36.8563 65.4194 36.3694 65.4194 35.7446C65.4194 35.1198 65.6374 34.6496 66.1252 34.1978C66.3689 33.9657 66.6568 33.7841 66.9721 33.6637C67.2874 33.5432 67.6237 33.4864 67.9615 33.4965H68.0098L68.0611 33.4937C68.357 33.4791 70.91 33.4547 84.6841 33.4547C84.7589 33.4547 84.9382 33.4578 85.1462 33.4616C85.8362 33.4745 87.121 33.4981 88.2679 33.4703C88.3732 33.4678 88.4746 33.4647 88.5737 33.4616H94.9346V54.2341C94.9319 54.7586 95.0355 55.2782 95.2394 55.7622C95.4433 56.2461 95.7432 56.6844 96.1214 57.0511C96.4977 57.4294 96.947 57.7288 97.4425 57.9313C97.938 58.1338 98.4695 58.2354 99.0054 58.23H103.077V36.1365C103.077 35.8428 103.077 35.6074 103.076 35.362C103.076 35.0958 103.075 34.8173 103.075 34.4371C103.076 34.0964 102.989 33.7611 102.822 33.4636H109.213V41.9494C109.213 46.2752 110.786 50.0517 113.887 53.1742C116.964 56.2721 120.788 57.9698 125.252 58.2207C125.472 58.2378 126.167 58.2666 134.599 58.2666H136.354V54.4381C136.36 53.8987 136.252 53.3641 136.037 52.8687C135.822 52.3732 135.505 51.9281 135.105 51.562L135.104 51.5618Z" fill="white"/>
</g>
<defs>
<clipPath id="clip0_323_3">
<rect width="136" height="85" fill="white" transform="translate(0.354492 0.130371)"/>
</clipPath>
</defs>
</svg>
