<svg width="35" height="25" viewBox="0 0 35 25" fill="none" xmlns="http://www.w3.org/2000/svg">
<path d="M33.5657 4.51543C33.3736 3.81285 32.9948 3.1716 32.4672 2.6559C31.9396 2.14021 31.2818 1.76817 30.5595 1.57703C27.9089 0.882324 17.2769 0.882324 17.2769 0.882324C17.2769 0.882324 6.64477 0.882324 3.99277 1.57703C3.27085 1.7685 2.61336 2.14068 2.08605 2.65634C1.55874 3.17201 1.18011 3.81307 0.988022 4.51543C0.276855 7.10716 0.276855 12.5135 0.276855 12.5135C0.276855 12.5135 0.276855 17.9198 0.988022 20.5115C1.1801 21.2141 1.5589 21.8554 2.08649 22.3711C2.61408 22.8868 3.27194 23.2588 3.99419 23.4499C6.64477 24.1446 17.2769 24.1446 17.2769 24.1446C17.2769 24.1446 27.9089 24.1446 30.5609 23.4499C31.2833 23.2589 31.9412 22.8869 32.4688 22.3712C32.9964 21.8555 33.3752 21.2142 33.5671 20.5115C34.2769 17.9198 34.2769 12.5135 34.2769 12.5135C34.2769 12.5135 34.2769 7.10716 33.5657 4.51543ZM13.7989 17.4218V7.60515L22.6857 12.5135L13.7989 17.4218Z" fill="white"/>
</svg>
